<?xml version="1.0" encoding="UTF-8"?>
<!DOCTYPE svg PUBLIC "-//W3C//DTD SVG 1.1//EN" "http://www.w3.org/Graphics/SVG/1.1/DTD/svg11.dtd">
<!-- Creator: CorelDRAW X7 -->
<svg xmlns="http://www.w3.org/2000/svg" xml:space="preserve" width="121.217mm" height="32.2251mm" version="1.1" style="shape-rendering:geometricPrecision; text-rendering:geometricPrecision; image-rendering:optimizeQuality; fill-rule:evenodd; clip-rule:evenodd"
viewBox="0 0 12122 3223"
 xmlns:xlink="http://www.w3.org/1999/xlink">
 <defs>
  <style type="text/css">
   <![CDATA[
    .fil1 {fill:#676767}
    .fil0 {fill:#FE860C}
   ]]>
  </style>
 </defs>
 <g id="Layer_x0020_1">
  <metadata id="CorelCorpID_0Corel-Layer"/>
  <g id="_603939280">
   <path class="fil0" d="M10326 1286l-596 0c4,-42 49,-131 74,-171 30,-46 43,-57 79,-89 17,-15 27,-23 48,-36 166,-101 469,-19 395,296zm906 -918c-2,54 -32,156 -45,216 -10,47 -5,33 -97,33 -45,0 -91,0 -136,0l-55 259c-3,17 -5,28 -8,44 -2,8 -2,15 -4,22 -6,24 6,7 -12,20 -8,-35 -30,-62 -50,-91l-68 -83c-19,-18 -34,-31 -53,-46 -142,-114 -353,-157 -529,-156 -38,0 -57,-9 -94,-5 -186,15 -304,10 -488,102 -47,23 -85,47 -124,75 -158,112 -276,259 -349,441 -29,72 -50,158 -58,240 -14,126 2,268 47,385 20,55 54,116 88,163 71,100 164,172 279,218 299,120 826,104 1096,-77l174 -155c27,-30 49,-64 71,-97 12,-17 25,-32 27,-56l-523 -47c-31,-2 -44,-6 -78,-6 -43,65 -109,114 -186,133 -70,18 -159,17 -224,-11 -104,-44 -160,-172 -160,-294l1218 0c22,0 21,-46 24,-65 21,-115 54,-355 2,-463l168 0c-16,32 -35,153 -44,197 -12,65 -26,135 -42,203 -21,88 -76,337 -76,415 0,81 24,143 59,203 8,13 11,19 20,31 51,67 109,109 189,136 161,53 365,22 527,2 31,-3 71,-11 99,-11 17,-73 32,-149 47,-224 13,-66 41,-159 47,-225l-93 17c-23,4 -77,11 -101,11 -33,0 -68,-4 -94,-18 -16,-8 -22,-11 -31,-26 -35,-58 -6,-134 5,-193 8,-38 16,-73 24,-113 8,-40 16,-74 24,-112l51 -251c11,-47 7,-43 63,-42 91,0 181,0 272,0 2,-18 7,-39 11,-57l62 -289c9,-46 32,-104 5,-104l-303 0c1,-20 9,-54 14,-75 6,-27 9,-47 15,-73l97 -448 -700 347z"/>
   <path class="fil0" d="M6713 2243c216,0 432,0 649,0l244 -1136c7,-36 33,-138 33,-166 12,9 11,15 21,37l190 448c12,28 23,54 34,80 13,28 22,55 36,85l278 652 649 0c52,-226 97,-482 150,-702 11,-46 22,-97 31,-141l295 -1374c3,-13 10,-26 -11,-26l-633 0c-12,24 -14,45 -20,74l-123 572c-24,110 -49,218 -71,327 -8,44 -68,295 -68,329l-11 0c-1,-21 -8,-27 -15,-43l-534 -1259 -643 0c-12,26 -76,349 -92,415 -11,50 -19,92 -30,142l-181 840c-15,79 -178,800 -178,846z"/>
   <path class="fil0" d="M428 2243l753 0 28 -55c13,-21 20,-36 33,-57l648 -1155c7,-12 10,-19 17,-31l236 -422c13,-21 42,-69 47,-89l696 0c16,-71 32,-149 46,-220 8,-39 14,-74 23,-113 3,-16 8,-35 12,-56 6,-27 15,-45 -8,-45 -426,0 -851,0 -1276,0 -69,130 -130,265 -197,399l-582 1170c-2,3 -5,10 -7,14l-7 9c0,1 -1,2 -2,3 0,-28 -7,-68 -11,-99 -4,-30 -10,-72 -14,-101l-100 -799c-7,-67 -16,-137 -25,-200 -8,-59 -40,-368 -54,-396l-669 0c-26,0 -11,26 -6,58 4,27 8,44 13,71 10,48 18,91 27,140l325 1688c9,50 20,94 27,140l27 146z"/>
   <path class="fil0" d="M5009 1375l5 0c0,29 -22,148 -15,198 16,107 6,144 54,265 44,108 62,120 126,203 16,22 30,38 51,54 186,156 384,185 641,185 204,0 415,-59 567,-160 209,-139 333,-337 393,-580 48,-190 38,-417 -63,-585l-62 -95c-121,-162 -260,-221 -457,-260 -62,-12 -168,-12 -193,-17 -44,-7 -57,3 -96,3 -68,0 -129,8 -184,19 -155,31 -337,103 -453,212l-54 50c-11,12 -12,16 -24,29 -60,61 -128,171 -159,248 -5,14 -10,22 -15,37l-28 77c-4,16 -4,25 -14,39 1,-19 4,-23 8,-40l99 -465c8,-36 35,-147 35,-175 -208,0 -415,0 -623,0 -10,19 -8,18 -13,44 -47,245 -114,517 -164,767l-173 815 628 0 45 -215c11,-50 138,-624 138,-653zm5 -26l5 0 0 21 -5 0 0 -21zm1187 225l146 0 32 -162c18,5 26,18 36,31l197 232c12,16 26,22 28,45 -20,6 -75,60 -96,77l-97 81c-10,8 -12,9 -23,19l-171 142c0,-20 7,-42 11,-62 30,-149 44,-121 -53,-121 -99,0 -362,13 -435,-20 -63,-28 -121,-93 -143,-159 -58,-172 0,-347 76,-495 78,-152 261,-217 392,-157 25,11 59,30 78,48 102,96 72,317 39,439 -6,22 -16,42 -17,62zm-1182 -235c-2,-8 4,-21 4,-4 0,5 -1,18 -4,4zm5 -27c-1,-8 4,-20 4,-3 0,5 -1,18 -4,3z"/>
   <path class="fil0" d="M2807 1156c0,57 16,110 31,152 103,291 609,288 776,348 54,19 82,42 82,111 0,169 -294,211 -431,118 -44,-30 -80,-92 -81,-149l-586 52c1,-39 53,-256 62,-294 35,-148 59,-295 95,-443 33,-135 55,-272 88,-409 4,-17 9,-25 -10,-25l-612 0c-23,48 -70,327 -88,403l-251 1171c-4,19 -9,34 -11,52l628 0c14,-60 24,-118 38,-181 11,-46 36,-138 40,-185l59 145c133,248 511,258 752,258 112,0 248,-14 339,-37 94,-23 194,-52 272,-104 18,-12 40,-25 56,-38 80,-66 148,-140 190,-234l33 -109c29,-147 -21,-316 -150,-402 -62,-41 -130,-64 -203,-84 -99,-27 -437,-72 -501,-111 -65,-40 -78,-117 -26,-172 39,-41 96,-57 152,-58 24,-1 24,-5 41,-5l80 9c66,14 133,62 135,137l361 -37c22,-1 52,-3 76,-7 53,-8 94,-14 149,-14 0,-73 -49,-174 -94,-231 -19,-24 -57,-59 -83,-79 -141,-105 -346,-115 -524,-124l-226 15c-189,27 -373,86 -510,222 -27,27 -50,59 -71,92 -44,71 -77,155 -77,247z"/>
   <path class="fil0" d="M4590 434l622 0 81 -390c5,-22 16,-44 -7,-44l-607 0c-12,25 -89,401 -89,434z"/>
   <path class="fil1" d="M3916 3211c143,0 115,37 115,-178 0,-65 0,-129 0,-194l118 332c16,48 5,40 107,40l120 -346c0,-2 4,-9 5,-11 4,-9 2,-4 5,-9l0 329c-1,45 -10,37 105,37 12,0 16,-4 16,-16l0 -533 -173 0 -113 347c-8,22 5,5 -13,19 -1,-24 -19,-68 -28,-93 -21,-65 -81,-225 -92,-273l-172 0 0 549z"/>
   <path class="fil1" d="M5129 3195c0,25 35,16 99,16 24,0 16,-37 16,-79l0 -282 225 361c70,0 125,11 125,-16l0 -533 -120 0 0 355c-21,-24 -218,-349 -220,-355l-125 0 0 533z"/>
   <path class="fil1" d="M7534 3101l-120 0 0 -335c159,0 235,-9 235,199 0,69 -47,136 -115,136zm-246 94c0,12 4,16 16,16 80,0 247,7 313,-17 65,-23 112,-71 136,-136 61,-161 -2,-396 -208,-396l-257 0 0 533z"/>
   <path class="fil1" d="M6190 2933c0,246 228,336 361,267 24,-13 36,-33 58,-47 8,17 7,39 15,58 52,0 79,7 79,-16l0 -272c0,-12 -4,-16 -16,-16l-204 0c-24,0 -16,32 -16,94l121 0c0,112 -123,135 -187,104 -116,-56 -116,-294 9,-344 35,-14 80,-10 110,5 41,21 38,39 57,79l115 0c0,-136 -165,-247 -343,-176 -40,16 -54,32 -82,59 -43,43 -77,122 -77,205z"/>
   <path class="fil1" d="M9291 2907l-110 0 0 -151c75,0 204,-17 204,57 0,50 7,94 -94,94zm-235 304c74,0 125,11 125,-16l0 -199c124,0 194,-23 204,84 4,44 6,98 21,131l120 0c-10,-44 -9,-13 -16,-73 -3,-21 -3,-59 -7,-82 -16,-97 -55,-90 -71,-112 39,-9 79,-62 79,-110 0,-55 0,-87 -46,-132 -21,-21 -60,-40 -101,-40l-308 0 0 549z"/>
   <path class="fil1" d="M925 2954c0,-57 1,-111 38,-155 73,-89 249,-58 249,119 0,55 1,105 -38,150 -79,94 -249,52 -249,-114zm-126 -41c0,122 38,234 147,282 107,48 231,33 317,-54 144,-144 85,-495 -192,-495 -56,0 -113,16 -155,44 -65,43 -117,129 -117,223z"/>
   <path class="fil1" d="M6792 3195c0,12 3,16 15,16l403 0 0 -110 -293 0 0 -126 267 0 0 -99 -267 0 0 -110 288 0 0 -104 -413 0 0 533z"/>
   <path class="fil1" d="M8559 3195c0,12 4,16 16,16l387 0c24,0 15,-33 15,-95 0,-12 -3,-15 -15,-15l-277 0 0 -126 250 0c24,0 16,-27 16,-83 0,-12 -3,-16 -16,-16l-250 0 0 -110 287 0 0 -104 -413 0 0 533z"/>
   <path class="fil1" d="M10881 3195c0,12 3,16 15,16l387 0c25,0 16,-33 16,-95 0,-12 -4,-15 -16,-15l-277 0 0 -126 262 0 0 -99 -262 0 0 -110 272 0c25,0 16,-38 16,-104l-413 0 0 533z"/>
   <path class="fil1" d="M8052 2803c0,61 6,95 70,134 38,23 87,31 134,43 51,14 130,31 116,91 -4,19 -9,22 -9,22 -30,40 -212,61 -212,-71l-120 0c0,72 20,104 64,146 79,75 313,80 379,-43 32,-59 29,-130 -16,-180 -55,-61 -189,-68 -253,-97 -30,-13 -33,-17 -33,-51 0,-67 124,-62 161,-30 22,19 16,38 27,62 67,0 115,10 115,-16 0,-222 -423,-218 -423,-10z"/>
   <path class="fil1" d="M11357 2813c0,35 15,74 42,99 50,48 132,61 203,79 129,33 81,131 0,131 -62,0 -141,0 -141,-100l-120 0c0,280 460,239 460,42 0,-61 -2,-98 -63,-141 -75,-54 -319,-54 -250,-150 28,-39 118,-34 151,-7 20,16 20,39 31,63 36,0 115,8 115,-11 0,-180 -254,-211 -364,-128 -19,14 -33,29 -44,50 -7,15 -20,51 -20,73z"/>
   <path class="fil1" d="M10290 2939c0,103 53,213 151,257 85,38 198,37 274,-26 51,-42 87,-103 87,-174l-120 0c-1,32 -17,64 -33,82 -50,60 -153,46 -195,-11 -63,-85 -53,-269 59,-308 39,-13 79,-8 110,9 41,22 40,43 59,82l115 0c0,-267 -507,-303 -507,89z"/>
   <path class="fil1" d="M2038 2803c13,56 54,150 63,188l-131 0 68 -188zm-256 408c129,0 103,12 129,-55 8,-22 18,-49 23,-71l204 0c2,22 33,108 42,126 114,0 132,10 118,-24l-39 -103c-18,-48 -36,-94 -53,-141 -8,-23 -18,-47 -26,-68l-79 -213 -131 0 -156 419c-9,24 -18,46 -26,68 -15,42 -31,62 -6,62z"/>
   <path class="fil1" d="M4815 2803l68 188 -131 0c2,-17 8,-34 14,-49 7,-16 12,-30 17,-46 11,-32 24,-59 32,-93zm-251 408c126,0 105,11 128,-56 8,-26 18,-46 24,-70l198 0c5,11 7,19 12,31 4,11 6,15 11,30 9,25 13,44 24,65 161,0 135,29 80,-127l-158 -422 -131 0 -182 487c-13,35 -33,62 -6,62z"/>
   <path class="fil1" d="M5903 2803c5,7 -1,-5 5,10l63 178 -131 0c3,-34 53,-145 63,-188zm-251 408c135,0 101,17 139,-91 6,-17 9,-20 12,-35l199 0c18,38 26,87 47,126l120 0c0,-27 -10,-42 -20,-69l-166 -445c-6,-15 -9,-20 -12,-35l-131 0c-2,20 -17,48 -24,70l-133 348c-9,22 -18,47 -25,69 -5,13 -8,19 -14,33 -6,14 -15,29 8,29z"/>
   <path class="fil1" d="M9730 3211c156,0 131,13 154,-56l165 -493 -130 0c-15,63 -113,341 -115,371l-11 0c-2,-23 -45,-153 -56,-185l-59 -186 -125 0c1,20 14,50 20,68 8,24 14,43 22,67 7,21 13,45 21,68l114 346z"/>
   <path class="fil1" d="M1374 2766l162 0 0 445c74,0 126,11 126,-16l0 -429 162 0 0 -104 -450 0 0 104z"/>
   <path class="fil1" d="M3194 2766l162 0 0 429c0,26 41,16 110,16 12,0 16,-4 16,-16l0 -429 162 0 0 -104 -450 0 0 104z"/>
   <path class="fil1" d="M313 2766l162 0 0 429c0,26 41,16 110,16 12,0 15,-4 15,-16l0 -429 163 0 0 -104 -450 0 0 104z"/>
   <path class="fil1" d="M2347 3195c0,12 4,16 16,16l360 0c25,0 16,-33 16,-95 0,-12 -3,-15 -16,-15l-251 0 0 -439 -125 0 0 533z"/>
   <path class="fil1" d="M3011 3195c0,26 41,16 110,16 12,0 16,-4 16,-16l0 -533 -126 0 0 533z"/>
   <path class="fil1" d="M10091 3211l110 0c12,0 16,-4 16,-16l0 -533 -126 0 0 549z"/>
  </g>
 </g>
</svg>
