<svg width="600" height="260" viewBox="0 0 600 260" fill="none" xmlns="http://www.w3.org/2000/svg">
<path d="M0 209.456V259.49C40.6683 258.642 73.375 225.409 73.375 184.538V85.3197C73.375 61.6817 88.5803 50.4937 98.3438 50.4937C108.107 50.4937 123.312 61.6817 123.312 85.3197V174.68C123.312 217.124 152.851 259.506 198.281 259.506C243.712 259.506 273.25 217.124 273.25 174.68V85.3197C273.25 61.6817 288.455 50.4937 298.219 50.4937C307.982 50.4937 323.188 61.6817 323.188 85.3197V174.68C323.188 217.124 352.726 259.506 398.156 259.506C443.587 259.506 473.125 217.124 473.125 174.68V85.3197C473.125 61.6817 488.33 50.4937 498.094 50.4937C507.857 50.4937 523.062 61.6817 523.062 85.3197V174.68C523.062 217.124 552.601 259.506 598.031 259.506C598.691 259.506 599.347 259.497 600 259.48V209.364C599.325 209.459 598.666 209.506 598.031 209.506C588.268 209.506 573.062 198.318 573.062 174.68V85.3197C573.062 42.8757 543.524 0.493652 498.094 0.493652C452.663 0.493652 423.125 42.8757 423.125 85.3197V174.68C423.125 198.318 407.92 209.506 398.156 209.506C388.393 209.506 373.188 198.318 373.188 174.68V85.3197C373.188 42.8757 343.649 0.493652 298.219 0.493652C252.788 0.493652 223.25 42.8757 223.25 85.3197V174.68C223.25 198.318 208.045 209.506 198.281 209.506C188.518 209.506 173.312 198.318 173.312 174.68V85.3197C173.312 42.8757 143.774 0.493652 98.3438 0.493652C52.9132 0.493652 23.375 42.8757 23.375 85.3197V184.538C23.375 197.792 13.0472 208.634 0 209.456Z" fill="#F5BD33"/>
</svg>
