<svg id="visual" viewBox="0 0 960 200" width="960" height="200" xmlns="http://www.w3.org/2000/svg" xmlns:xlink="http://www.w3.org/1999/xlink" version="1.1"><path d="M0 106L16 102.7C32 99.3 64 92.7 96 93.7C128 94.7 160 103.3 192 99.3C224 95.3 256 78.7 288 80.7C320 82.7 352 103.3 384 111.5C416 119.7 448 115.3 480 102C512 88.7 544 66.3 576 60.2C608 54 640 64 672 71.3C704 78.7 736 83.3 768 89.8C800 96.3 832 104.7 864 98.5C896 92.3 928 71.7 944 61.3L960 51L960 201L944 201C928 201 896 201 864 201C832 201 800 201 768 201C736 201 704 201 672 201C640 201 608 201 576 201C544 201 512 201 480 201C448 201 416 201 384 201C352 201 320 201 288 201C256 201 224 201 192 201C160 201 128 201 96 201C64 201 32 201 16 201L0 201Z" fill="#cd7bcd"></path><path d="M0 145L16 143.8C32 142.7 64 140.3 96 132C128 123.7 160 109.3 192 101.3C224 93.3 256 91.7 288 94.3C320 97 352 104 384 107.3C416 110.7 448 110.3 480 113.7C512 117 544 124 576 127.8C608 131.7 640 132.3 672 126.8C704 121.3 736 109.7 768 107.8C800 106 832 114 864 112.2C896 110.3 928 98.7 944 92.8L960 87L960 201L944 201C928 201 896 201 864 201C832 201 800 201 768 201C736 201 704 201 672 201C640 201 608 201 576 201C544 201 512 201 480 201C448 201 416 201 384 201C352 201 320 201 288 201C256 201 224 201 192 201C160 201 128 201 96 201C64 201 32 201 16 201L0 201Z" fill="#d18cd1"></path><path d="M0 111L16 113.2C32 115.3 64 119.7 96 126C128 132.3 160 140.7 192 139.5C224 138.3 256 127.7 288 126.8C320 126 352 135 384 143.7C416 152.3 448 160.7 480 159.8C512 159 544 149 576 143.5C608 138 640 137 672 134.5C704 132 736 128 768 131C800 134 832 144 864 146.8C896 149.7 928 145.3 944 143.2L960 141L960 201L944 201C928 201 896 201 864 201C832 201 800 201 768 201C736 201 704 201 672 201C640 201 608 201 576 201C544 201 512 201 480 201C448 201 416 201 384 201C352 201 320 201 288 201C256 201 224 201 192 201C160 201 128 201 96 201C64 201 32 201 16 201L0 201Z" fill="#d59ed5"></path><path d="M0 156L16 153.2C32 150.3 64 144.7 96 142.5C128 140.3 160 141.7 192 141.7C224 141.7 256 140.3 288 145.2C320 150 352 161 384 169.7C416 178.3 448 184.7 480 179.3C512 174 544 157 576 154.3C608 151.7 640 163.3 672 169.5C704 175.7 736 176.3 768 176.7C800 177 832 177 864 171.5C896 166 928 155 944 149.5L960 144L960 201L944 201C928 201 896 201 864 201C832 201 800 201 768 201C736 201 704 201 672 201C640 201 608 201 576 201C544 201 512 201 480 201C448 201 416 201 384 201C352 201 320 201 288 201C256 201 224 201 192 201C160 201 128 201 96 201C64 201 32 201 16 201L0 201Z" fill="#d9afd9"></path></svg>