<svg id="visual" viewBox="0 0 960 200" width="960" height="200" xmlns="http://www.w3.org/2000/svg" xmlns:xlink="http://www.w3.org/1999/xlink" version="1.1"><path d="M0 113L11.5 103.7C23 94.3 46 75.7 68.8 73C91.7 70.3 114.3 83.7 137.2 87.3C160 91 183 85 205.8 88.2C228.7 91.3 251.3 103.7 274.2 110.5C297 117.3 320 118.7 342.8 109.8C365.7 101 388.3 82 411.2 82.8C434 83.7 457 104.3 480 107C503 109.7 526 94.3 548.8 90.5C571.7 86.7 594.3 94.3 617.2 91.5C640 88.7 663 75.3 685.8 71.5C708.7 67.7 731.3 73.3 754.2 79.8C777 86.3 800 93.7 822.8 89.8C845.7 86 868.3 71 891.2 74.3C914 77.7 937 99.3 948.5 110.2L960 121L960 201L948.5 201C937 201 914 201 891.2 201C868.3 201 845.7 201 822.8 201C800 201 777 201 754.2 201C731.3 201 708.7 201 685.8 201C663 201 640 201 617.2 201C594.3 201 571.7 201 548.8 201C526 201 503 201 480 201C457 201 434 201 411.2 201C388.3 201 365.7 201 342.8 201C320 201 297 201 274.2 201C251.3 201 228.7 201 205.8 201C183 201 160 201 137.2 201C114.3 201 91.7 201 68.8 201C46 201 23 201 11.5 201L0 201Z" fill="#ecc458"></path><path d="M0 106L11.5 110.7C23 115.3 46 124.7 68.8 121.5C91.7 118.3 114.3 102.7 137.2 102.3C160 102 183 117 205.8 119.2C228.7 121.3 251.3 110.7 274.2 110.7C297 110.7 320 121.3 342.8 126.3C365.7 131.3 388.3 130.7 411.2 123.5C434 116.3 457 102.7 480 98.5C503 94.3 526 99.7 548.8 101.2C571.7 102.7 594.3 100.3 617.2 104.3C640 108.3 663 118.7 685.8 120.2C708.7 121.7 731.3 114.3 754.2 116.5C777 118.7 800 130.3 822.8 128.8C845.7 127.3 868.3 112.7 891.2 110.2C914 107.7 937 117.3 948.5 122.2L960 127L960 201L948.5 201C937 201 914 201 891.2 201C868.3 201 845.7 201 822.8 201C800 201 777 201 754.2 201C731.3 201 708.7 201 685.8 201C663 201 640 201 617.2 201C594.3 201 571.7 201 548.8 201C526 201 503 201 480 201C457 201 434 201 411.2 201C388.3 201 365.7 201 342.8 201C320 201 297 201 274.2 201C251.3 201 228.7 201 205.8 201C183 201 160 201 137.2 201C114.3 201 91.7 201 68.8 201C46 201 23 201 11.5 201L0 201Z" fill="#f2d160"></path><path d="M0 113L11.5 113.8C23 114.7 46 116.3 68.8 115.3C91.7 114.3 114.3 110.7 137.2 114.7C160 118.7 183 130.3 205.8 133.3C228.7 136.3 251.3 130.7 274.2 124.7C297 118.7 320 112.3 342.8 115.2C365.7 118 388.3 130 411.2 131.8C434 133.7 457 125.3 480 127.5C503 129.7 526 142.3 548.8 142.8C571.7 143.3 594.3 131.7 617.2 124C640 116.3 663 112.7 685.8 112.7C708.7 112.7 731.3 116.3 754.2 123.8C777 131.3 800 142.7 822.8 147.7C845.7 152.7 868.3 151.3 891.2 144C914 136.7 937 123.3 948.5 116.7L960 110L960 201L948.5 201C937 201 914 201 891.2 201C868.3 201 845.7 201 822.8 201C800 201 777 201 754.2 201C731.3 201 708.7 201 685.8 201C663 201 640 201 617.2 201C594.3 201 571.7 201 548.8 201C526 201 503 201 480 201C457 201 434 201 411.2 201C388.3 201 365.7 201 342.8 201C320 201 297 201 274.2 201C251.3 201 228.7 201 205.8 201C183 201 160 201 137.2 201C114.3 201 91.7 201 68.8 201C46 201 23 201 11.5 201L0 201Z" fill="#f7df69"></path><path d="M0 141L11.5 143.8C23 146.7 46 152.3 68.8 152.5C91.7 152.7 114.3 147.3 137.2 149C160 150.7 183 159.3 205.8 160.3C228.7 161.3 251.3 154.7 274.2 148.2C297 141.7 320 135.3 342.8 139.5C365.7 143.7 388.3 158.3 411.2 165C434 171.7 457 170.3 480 168.7C503 167 526 165 548.8 161C571.7 157 594.3 151 617.2 147.5C640 144 663 143 685.8 147C708.7 151 731.3 160 754.2 165C777 170 800 171 822.8 170.8C845.7 170.7 868.3 169.3 891.2 165.3C914 161.3 937 154.7 948.5 151.3L960 148L960 201L948.5 201C937 201 914 201 891.2 201C868.3 201 845.7 201 822.8 201C800 201 777 201 754.2 201C731.3 201 708.7 201 685.8 201C663 201 640 201 617.2 201C594.3 201 571.7 201 548.8 201C526 201 503 201 480 201C457 201 434 201 411.2 201C388.3 201 365.7 201 342.8 201C320 201 297 201 274.2 201C251.3 201 228.7 201 205.8 201C183 201 160 201 137.2 201C114.3 201 91.7 201 68.8 201C46 201 23 201 11.5 201L0 201Z" fill="#fbed73"></path><path d="M0 161L11.5 162.5C23 164 46 167 68.8 167.8C91.7 168.7 114.3 167.3 137.2 170.5C160 173.7 183 181.3 205.8 182.7C228.7 184 251.3 179 274.2 174.7C297 170.3 320 166.7 342.8 169C365.7 171.3 388.3 179.7 411.2 182.5C434 185.3 457 182.7 480 179.7C503 176.7 526 173.3 548.8 174.3C571.7 175.3 594.3 180.7 617.2 182.3C640 184 663 182 685.8 182C708.7 182 731.3 184 754.2 180.7C777 177.3 800 168.7 822.8 166.5C845.7 164.3 868.3 168.7 891.2 169.2C914 169.7 937 166.3 948.5 164.7L960 163L960 201L948.5 201C937 201 914 201 891.2 201C868.3 201 845.7 201 822.8 201C800 201 777 201 754.2 201C731.3 201 708.7 201 685.8 201C663 201 640 201 617.2 201C594.3 201 571.7 201 548.8 201C526 201 503 201 480 201C457 201 434 201 411.2 201C388.3 201 365.7 201 342.8 201C320 201 297 201 274.2 201C251.3 201 228.7 201 205.8 201C183 201 160 201 137.2 201C114.3 201 91.7 201 68.8 201C46 201 23 201 11.5 201L0 201Z" fill="#fffb7d"></path></svg>